<svg width="818" height="818" viewBox="0 0 818 818" fill="none" xmlns="http://www.w3.org/2000/svg">
<g clip-path="url(#clip0_942_440)">
<path d="M-1.7878e-05 409C-2.77517e-05 634.884 183.116 818 409 818C634.884 818 818 634.884 818 409C818 183.116 634.884 -8.00423e-06 409 -1.7878e-05C183.116 -2.77517e-05 -8.00423e-06 183.116 -1.7878e-05 409Z" fill="#445396"/>
<g filter="url(#filter0_d_942_440)">
<path d="M612.235 399.462L274.355 204.147C261.719 196.842 246.893 209.428 252.053 223.088L322.698 410.331C324.043 413.896 324.03 417.824 322.67 421.382L256.586 593.835C251.384 607.405 265.994 620.053 278.672 612.965L612.047 426.482C622.563 420.601 622.675 405.497 612.235 399.462Z" fill="#FF5595"/>
</g>
</g>
<defs>
<filter id="filter0_d_942_440" x="230" y="202" width="411" height="460" filterUnits="userSpaceOnUse" color-interpolation-filters="sRGB">
<feFlood flood-opacity="0" result="BackgroundImageFix"/>
<feColorMatrix in="SourceAlpha" type="matrix" values="0 0 0 0 0 0 0 0 0 0 0 0 0 0 0 0 0 0 127 0" result="hardAlpha"/>
<feOffset dy="26"/>
<feGaussianBlur stdDeviation="10.5"/>
<feComposite in2="hardAlpha" operator="out"/>
<feColorMatrix type="matrix" values="0 0 0 0 0 0 0 0 0 0 0 0 0 0 0 0 0 0 0.25 0"/>
<feBlend mode="normal" in2="BackgroundImageFix" result="effect1_dropShadow_942_440"/>
<feBlend mode="normal" in="SourceGraphic" in2="effect1_dropShadow_942_440" result="shape"/>
</filter>
<clipPath id="clip0_942_440">
<rect width="818" height="818" fill="white" transform="translate(818) rotate(90)"/>
</clipPath>
</defs>
</svg>




