<svg width="818" height="818" viewBox="0 0 818 818" fill="none" xmlns="http://www.w3.org/2000/svg">
<g clip-path="url(#clip0_942_440)">
<path d="M-1.7878e-05 409C-2.77517e-05 634.884 183.116 818 409 818C634.884 818 818 634.884 818 409C818 183.116 634.884 -8.00423e-06 409 -1.7878e-05C183.116 -2.77517e-05 -8.00423e-06 183.116 -1.7878e-05 409Z" fill="#8C6746"/>
<g filter="url(#filter0_d_942_440)">
<path d="M618.092 401.472L260.431 238.788C249.918 232.704 237.583 243.187 241.876 254.565L300.651 410.525C301.771 413.495 301.759 416.766 300.628 419.73L245.648 563.371C241.319 574.673 253.475 585.209 264.023 579.305L617.935 423.978C626.685 419.079 626.777 406.498 618.092 401.472Z" fill="white"/>
</g>
</g>
<defs>
<filter id="filter0_d_942_440" x="163" y="165" width="539.551" height="500" filterUnits="userSpaceOnUse" color-interpolation-filters="sRGB">
<feFlood flood-opacity="0" result="BackgroundImageFix"/>
<feColorMatrix in="SourceAlpha" type="matrix" values="0 0 0 0 0 0 0 0 0 0 0 0 0 0 0 0 0 0 127 0" result="hardAlpha"/>
<feOffset dy="6"/>
<feGaussianBlur stdDeviation="39"/>
<feComposite in2="hardAlpha" operator="out"/>
<feColorMatrix type="matrix" values="0 0 0 0 0 0 0 0 0 0 0 0 0 0 0 0 0 0 0.5 0"/>
<feBlend mode="normal" in2="BackgroundImageFix" result="effect1_dropShadow_942_440"/>
<feBlend mode="normal" in="SourceGraphic" in2="effect1_dropShadow_942_440" result="shape"/>
</filter>
<clipPath id="clip0_942_440">
<rect width="818" height="818" fill="white" transform="translate(818) rotate(90)"/>
</clipPath>
</defs>
</svg>






